<svg width="186" height="16" viewBox="0 0 186 16" fill="none" xmlns="http://www.w3.org/2000/svg">
<path d="M8 0L9.79611 5.52786H15.6085L10.9062 8.94427L12.7023 14.4721L8 11.0557L3.29772 14.4721L5.09383 8.94427L0.391548 5.52786H6.20389L8 0Z" fill="#00ADEF"/>
<path d="M26.616 11V8.842H21.819L21.559 8.101L26.707 1.835H27.604V7.984H29.021V8.842H27.604V11H26.616ZM22.794 7.984H26.616V3.291L22.794 7.984ZM30.7227 11V9.635H31.9187V11H30.7227ZM36.8472 11.156C35.6425 11.156 34.5592 10.675 33.5972 9.713L34.2732 8.972C35.1312 9.804 35.9935 10.22 36.8602 10.22C37.5102 10.22 38.0389 10.0293 38.4462 9.648C38.8535 9.26667 39.0572 8.777 39.0572 8.179C39.0572 7.61567 38.8449 7.15633 38.4202 6.801C38.0042 6.44567 37.4625 6.268 36.7952 6.268C36.1712 6.268 35.5342 6.44133 34.8842 6.788L34.1952 6.333L34.4552 1.9H39.6942V2.849H35.3522L35.1572 5.761C35.7725 5.49233 36.3705 5.358 36.9512 5.358C37.8612 5.358 38.6109 5.61367 39.2002 6.125C39.7982 6.62767 40.0972 7.308 40.0972 8.166C40.0972 9.05 39.7939 9.76933 39.1872 10.324C38.5805 10.8787 37.8005 11.156 36.8472 11.156Z" fill="#00ADEF"/>
</svg>
